<?xml version="1.0" encoding="utf-8"?>
<!-- Generator: Adobe Illustrator 25.2.1, SVG Export Plug-In . SVG Version: 6.00 Build 0)  -->
<svg version="1.1" id="Layer_1" xmlns="http://www.w3.org/2000/svg" xmlns:xlink="http://www.w3.org/1999/xlink" x="0px" y="0px"
	 viewBox="0 0 36 36" style="enable-background:new 0 0 36 36;" xml:space="preserve">
<style type="text/css">
	.st0{fill:#FAF4E6;}
	.st1{clip-path:url(#SVGID_1_);}
	.st2{clip-path:url(#SVGID_2_);}
	.st3{clip-path:url(#SVGID_3_);}
	.st4{fill:#FFECB3;}
	.st5{fill:#FFE082;}
	.st6{fill:#FFD54F;}
	.st7{fill:#FFCA28;}
	.st8{fill:#FFB300;}
</style>
<g>
	<g>
		<circle class="st0" cx="18" cy="18" r="18"/>
	</g>
</g>
<g>
	<defs>
		<rect id="SVGID_11_" x="5.131" y="5.131" width="23.737" height="23.737"/>
	</defs>
	<clipPath id="SVGID_1_">
		<use xlink:href="#SVGID_11_"  style="overflow:visible;"/>
	</clipPath>
	<g id="g1662" class="st1">
		<g>
			<defs>
				<rect id="SVGID_13_" x="5.131" y="5.131" width="23.737" height="23.737"/>
			</defs>
			<clipPath id="SVGID_2_">
				<use xlink:href="#SVGID_13_"  style="overflow:visible;"/>
			</clipPath>
			<g id="g1660" class="st2">
				<g>
					<defs>
						<rect id="SVGID_15_" x="5.131" y="5.131" width="23.737" height="23.737"/>
					</defs>
					<clipPath id="SVGID_3_">
						<use xlink:href="#SVGID_15_"  style="overflow:visible;"/>
					</clipPath>
					<g id="g1658" class="st3">
						<path id="path1648" class="st4" d="M24.653,22.622c-0.016-0.008-1.633-0.865-3.189-2.879
							c-0.968-1.254-1.714-2.693-2.216-4.278c-0.708-2.306-0.209-5.633-0.63-7.458c-0.453-1.964-1.813-2.343-2.272-2.363
							c-1.228-0.053-2.443,1.027-2.7,3.235c-1.079,9.246,2.993,14.964,8.843,18.115c1.155,0.587,2.675,0.119,3.267-1.103
							C26.353,24.682,25.86,23.219,24.653,22.622L24.653,22.622z"/>
						<path id="path1650" class="st5" d="M24.653,22.622c-0.016-0.008-1.633-0.865-3.189-2.879
							c-0.968-1.254-1.714-2.693-2.216-4.278c-0.708-2.306-0.209-5.633-0.63-7.458c-0.453-1.964-1.813-2.343-2.272-2.363
							c-0.283-0.012-0.565,0.036-0.835,0.144c0.587,0.239,1.355,0.836,1.674,2.219c0.421,1.825-0.078,5.151,0.63,7.458
							c0.502,1.585,1.248,3.025,2.216,4.278c1.556,2.015,3.174,2.872,3.189,2.879c1.207,0.598,1.701,2.061,1.103,3.268
							c-0.305,0.63-0.857,1.059-1.479,1.247c1.094,0.342,2.379-0.147,2.912-1.247C26.353,24.682,25.86,23.219,24.653,22.622
							L24.653,22.622z"/>
						<path id="path1652" class="st6" d="M17.522,17.949c0,0-2.741-3.539-6.444-3.691c-3.703-0.152-3.598,5.613-4.816,6.245
							c-1.218,0.631-1.129,1.244-1.129,1.244s0.061,0.559,1.055,0.197c0.994-0.361,1.171-0.633,1.551-1.102
							c0.38-0.47,1.218-5.31,3.318-5.176c2.099,0.134,2.594,4.598,4.948,7.256c2.354,2.658,5.029,4.718,7.882,4.526
							c2.545-0.172,3.452,0.573,4.046,0.885c0.109,0.057,0.244,0.015,0.3-0.095l0.61-1.187c0.059-0.115,0.008-0.255-0.111-0.305
							c-0.504-0.212-1.733-0.82-2.297-1.887c-0.718-1.361-0.071-1.03-2.321-2.915c-2.25-1.885-3.461-4.734-3.402-5.824
							c0.058-1.09-0.143-3.542,1.898-3.499c2.041,0.043,2.402,3.534,3.446,4.691c0.925,1.026,1.477,0.103,1.477,0.103
							s0.187-0.622-0.733-1.323c-0.643-0.49-1.313-4.868-4.135-4.798C19.843,11.364,17.393,13.628,17.522,17.949L17.522,17.949z"/>
						<path id="path1654" class="st7" d="M28.733,26.745c-0.504-0.212-1.733-0.82-2.297-1.887c-0.718-1.361-0.071-1.03-2.321-2.915
							c-2.25-1.885-3.461-4.734-3.402-5.824c0.058-1.09-0.143-3.542,1.898-3.499c2.041,0.043,2.402,3.534,3.446,4.691
							c0.925,1.025,1.477,0.103,1.477,0.103s0.187-0.622-0.733-1.323c-0.643-0.49-1.313-4.868-4.135-4.797
							c-2.366,0.059-4.47,1.661-5.013,4.723c-0.081,1.161-0.131,1.933-0.131,1.933s0.565,4.394,4.4,6.167
							c3.834,1.773,2.598,2.361,4.623,3.562c0,0,0.001,0,0.001,0.001c0.676,0.207,1.075,0.49,1.386,0.654
							c0.109,0.057,0.244,0.015,0.3-0.095l0.61-1.187C28.902,26.936,28.852,26.795,28.733,26.745L28.733,26.745z"/>
						<path id="path1656" class="st8" d="M28.733,26.745c-0.504-0.212-1.734-0.82-2.297-1.887c-0.718-1.361-0.071-1.03-2.321-2.915
							c-2.25-1.885-3.461-4.734-3.402-5.824c0.049-0.922-0.087-2.819,1.106-3.355c-1.423,0.478-2.539,1.544-2.539,3.355
							c0,1.77,1.153,3.939,3.402,5.824c2.25,1.885,1.531,1.594,2.321,2.915c1.025,1.713,2.671,1.621,2.802,3.404
							c0.044,0.025,0.086,0.048,0.127,0.07c0.109,0.057,0.244,0.015,0.3-0.095l0.61-1.187
							C28.902,26.936,28.852,26.795,28.733,26.745L28.733,26.745z"/>
					</g>
				</g>
			</g>
		</g>
	</g>
</g>
</svg>
