<svg xmlns="http://www.w3.org/2000/svg" width="60" height="60" viewBox="0 0 60 60"><defs><style>.a{fill:#fff;}.b{fill:#e17726;stroke:#e17726;}.b,.c,.d,.e,.f,.g,.h,.i,.j,.k{stroke-linecap:round;stroke-linejoin:round;stroke-width:0.25px;}.c{fill:#e27625;stroke:#e27625;}.d{fill:#d5bfb2;stroke:#d5bfb2;}.e{fill:#233447;stroke:#233447;}.f{fill:#cc6228;stroke:#cc6228;}.g{fill:#e27525;stroke:#e27525;}.h{fill:#f5841f;stroke:#f5841f;}.i{fill:#c0ac9d;stroke:#c0ac9d;}.j{fill:#161616;stroke:#161616;}.k{fill:#763e1a;stroke:#763e1a;}</style></defs><g transform="translate(-1000 -415)"><rect class="a" width="60" height="60" rx="20" transform="translate(1000 415)"/><g transform="translate(1012 428)"><path class="b" d="M32.958,1,19.824,10.718l2.443-5.727Z"/><path class="c" d="M2.663,1,15.68,10.809,13.355,4.991Z"/><path class="c" d="M28.229,23.533l-3.494,5.339,7.482,2.06,2.144-7.282Z"/><path class="c" d="M1.273,23.65,3.4,30.932l7.47-2.06L7.392,23.533Z"/><path class="c" d="M10.47,14.515,8.392,17.651l7.4.337-.247-7.969Z"/><path class="c" d="M25.15,14.515,19.993,9.928l-.169,8.06,7.405-.337Z"/><path class="c" d="M10.873,28.872l4.482-2.164L11.5,23.7Z"/><path class="c" d="M20.266,26.708l4.469,2.164-.611-5.17Z"/><path class="d" d="M24.735,28.872l-4.469-2.164.364,2.9-.039,1.231Z"/><path class="d" d="M10.873,28.872l4.158,1.97-.026-1.231.35-2.9Z"/><path class="e" d="M15.108,21.784,11.393,20.7l2.624-1.2Z"/><path class="e" d="M20.513,21.784,21.6,19.491l2.637,1.2Z"/><path class="f" d="M10.873,28.872l.65-5.339-4.131.117Z"/><path class="f" d="M24.1,23.533l.637,5.339,3.494-5.222Z"/><path class="f" d="M27.229,17.651l-7.405.336.689,3.8L21.6,19.491l2.637,1.2Z"/><path class="f" d="M11.393,20.7l2.624-1.2,1.091,2.293.689-3.8-7.4-.336Z"/><path class="g" d="M8.392,17.651,11.5,23.7l-.1-3.006Z"/><path class="g" d="M24.241,20.7,24.124,23.7l3.1-6.051Z"/><path class="g" d="M15.8,17.987l-.688,3.8.87,4.483.195-5.908Z"/><path class="g" d="M19.824,17.987l-.364,2.359.182,5.921.871-4.483Z"/><path class="h" d="M20.513,21.784l-.871,4.484.624.44L24.124,23.7l.117-3.006Z"/><path class="h" d="M11.393,20.7l.1,3.006,3.858,3.006.624-.44-.871-4.484Z"/><path class="i" d="M20.591,30.842l.039-1.231-.338-.285H15.329l-.324.285.026,1.231-4.158-1.97,1.455,1.192L15.277,32.1h5.054l2.962-2.035,1.442-1.192Z"/><path class="j" d="M20.266,26.708l-.624-.44H15.979l-.624.44L15,29.611l.325-.285h4.963l.338.285Z"/><path class="k" d="M33.517,11.353l1.1-5.364L32.958,1,20.266,10.394l4.884,4.121,6.9,2.008,1.52-1.775-.663-.479,1.052-.959-.805-.622,1.052-.8Z"/><path class="k" d="M1,5.989l1.117,5.364-.714.531,1.065.8-.8.622,1.052.959-.663.479,1.52,1.775,6.9-2.008,4.884-4.121L2.663,1Z"/><path class="h" d="M32.049,16.523l-6.9-2.008,2.078,3.136-3.1,6.051,4.1-.052h6.132Z"/><path class="h" d="M10.47,14.515l-6.9,2.008-2.3,7.127H7.392l4.1.052-3.1-6.051Z"/><path class="h" d="M19.824,17.988l.442-7.594,2-5.4H13.354l2,5.4.442,7.594.169,2.384.013,5.9h3.663l.013-5.9Z"/></g></g></svg>