<svg xmlns="http://www.w3.org/2000/svg" xmlns:xlink="http://www.w3.org/1999/xlink" width="54" height="54" viewBox="0 0 54 54"><defs><style>.a{fill:#ccf66c;}.b{fill:#05090b;}.c{filter:url(#a);}</style><filter id="a" x="0" y="0" width="54" height="54" filterUnits="userSpaceOnUse"><feOffset input="SourceAlpha"/><feGaussianBlur stdDeviation="5" result="b"/><feFlood flood-color="#ccf66c" flood-opacity="0.502"/><feComposite operator="in" in2="b"/><feComposite in="SourceGraphic"/></filter></defs><g transform="translate(-1020 -373)"><g class="c" transform="matrix(1, 0, 0, 1, 1020, 373)"><circle class="a" cx="12" cy="12" r="12" transform="translate(15 15)"/></g><g transform="translate(1037.701 390.596)"><g transform="translate(7.215 7.187)"><g transform="translate(0 0)"><path class="b" d="M167.945,179.392A2.057,2.057,0,1,0,170,181.449,2.051,2.051,0,0,0,167.945,179.392Z" transform="translate(-165.888 -179.392)"/></g></g><g transform="translate(4.353 0.001)"><g transform="translate(0 0)"><path class="b" d="M109.9,15.368a9.4,9.4,0,0,0-9.278,0,.545.545,0,0,0-.268.469.451.451,0,0,0,.067.246l2.593,4.471a.515.515,0,0,0,.447.246.451.451,0,0,0,.246-.067,3.158,3.158,0,0,1,3.085,0,.451.451,0,0,0,.246.067.515.515,0,0,0,.447-.246l2.593-4.471A.538.538,0,0,0,109.9,15.368Z" transform="translate(-100.352 -14.144)"/></g></g><g transform="translate(10.551 8.705)"><g transform="translate(0 0)"><path class="b" d="M250.431,214.72h-5.164a.506.506,0,0,0-.514.514,3.155,3.155,0,0,1-1.543,2.683.512.512,0,0,0-.179.715l2.593,4.471a.517.517,0,0,0,.715.179,9.333,9.333,0,0,0,4.65-8.048A.577.577,0,0,0,250.431,214.72Z" transform="translate(-242.953 -214.72)"/></g></g><g transform="translate(0 8.705)"><g transform="translate(0 0)"><path class="b" d="M7.758,217.917a3.128,3.128,0,0,1-1.565-2.683.506.506,0,0,0-.514-.514H.514a.506.506,0,0,0-.514.514,9.339,9.339,0,0,0,4.628,8.048.636.636,0,0,0,.268.089.515.515,0,0,0,.447-.246l2.593-4.471A.538.538,0,0,0,7.758,217.917Z" transform="translate(0 -214.72)"/></g></g></g></g></svg>