<svg xmlns="http://www.w3.org/2000/svg" width="60" height="60" viewBox="0 0 60 60"><defs><style>.a{fill:#fff;}.b{fill:#3375bb;}</style></defs><g transform="translate(-1000 -535)"><rect class="a" width="60" height="60" rx="20" transform="translate(1000 535)"/><g transform="translate(992.25 533.27)"><path class="b" d="M37.505,47.73a1.452,1.452,0,0,1-.844-.271,38.563,38.563,0,0,0-4.4-2.684c-5.618-3.048-7.249-4.7-7.51-21.99A1.448,1.448,0,0,1,26.2,21.316h.255a15.056,15.056,0,0,0,10.124-3.251,1.448,1.448,0,0,1,1.855,0A15.074,15.074,0,0,0,48.57,21.317h.258a1.448,1.448,0,0,1,1.447,1.469c-.261,17.289-1.9,18.939-7.521,21.988a38.426,38.426,0,0,0-4.406,2.686A1.446,1.446,0,0,1,37.505,47.73ZM27.67,24.2c.306,14.957,1.69,15.708,5.971,18.031a44.872,44.872,0,0,1,3.864,2.29,44.58,44.58,0,0,1,3.87-2.292c4.288-2.325,5.674-3.076,5.981-18.029a17.8,17.8,0,0,1-9.851-3.193A17.787,17.787,0,0,1,27.67,24.2Z"/></g></g></svg>